<svg xmlns="http://www.w3.org/2000/svg" xmlns:xlink="http://www.w3.org/1999/xlink" width="273" height="142"><defs><path id="a" d="M117.889 14.826h49.15v60.48h-49.15z"/></defs><clipPath id="b"><use xlink:href="#a" overflow="visible"/></clipPath><path clip-path="url(#b)" d="M117.889 14.826v60.48h17.194c21.772 0 32.14-12.874 32.14-30.24s-10.368-30.24-32.14-30.24h-17.194zm47.173 30.24c0 16.416-9.676 28.166-29.98 28.166h-15.034V16.9h15.034c20.305 0 29.98 11.75 29.98 28.166"/><defs><path id="c" d="M-33-33.772h340.157V193H-33z"/></defs><clipPath id="d"><use xlink:href="#c" overflow="visible"/></clipPath><path clip-path="url(#d)" d="M130.406 74.928c-3.488 0-10.982-.14-11.058-.141l.038-2c.075.002 7.55.141 11.02.141 11.748 0 21.485-4.636 26.048-12.4 2.912-4.956 3.146-10.375.644-14.868-4.244-7.62-12.227-6.895-19.947-6.197-7.66.692-15.578 1.411-17.571-7.52-.566-2.534.044-5.36 1.716-7.959 2.55-3.968 7.078-6.813 12.746-8.01 5.324-1.124 10.672-.046 10.896-.001l-.402 1.959c-.053-.011-5.18-1.039-10.08-.001-5.068 1.07-9.251 3.671-11.479 7.135-1.38 2.146-1.893 4.433-1.446 6.441 1.532 6.868 6.864 6.741 15.439 5.964 7.969-.72 16.998-1.54 21.876 7.217 2.856 5.127 2.613 11.269-.668 16.852-4.925 8.383-15.308 13.388-27.772 13.388M241.52 104.04h-.726v20.519h1.291v-17.271c0-.261-.015-.535-.044-.826l13.34 17.806a.627.627 0 0 0 .537.291h.71V104.04h-1.305v17.213c0 .27.015.551.044.841l-13.282-17.777a.689.689 0 0 0-.247-.225.8.8 0 0 0-.318-.052m-19.263 18.908a7.53 7.53 0 0 1-2.696-1.834c-.75-.798-1.332-1.771-1.748-2.922-.415-1.149-.623-2.451-.623-3.901 0-1.42.205-2.7.616-3.842.41-1.141.996-2.106 1.755-2.899a7.634 7.634 0 0 1 2.747-1.827c1.072-.425 2.276-.638 3.61-.638 1.005 0 1.861.092 2.566.275.706.184 1.293.392 1.762.623.469.232.841.454 1.117.667.275.213.485.348.63.406.078.039.16.058.247.058.154 0 .275-.073.362-.217l.392-.638a10.908 10.908 0 0 0-1.421-1.053 8.734 8.734 0 0 0-1.595-.768 10.031 10.031 0 0 0-1.85-.471 13.626 13.626 0 0 0-2.168-.16c-1.574 0-2.999.249-4.27.747-1.271.498-2.352 1.203-3.241 2.117-.889.913-1.575 2.015-2.059 3.306-.483 1.29-.726 2.728-.726 4.312 0 1.587.242 3.026.726 4.321.483 1.296 1.163 2.4 2.038 3.314a8.99 8.99 0 0 0 3.146 2.117c1.223.497 2.574.746 4.053.746.86 0 1.653-.051 2.378-.152a13.514 13.514 0 0 0 2.03-.436 10.666 10.666 0 0 0 1.77-.703 13.351 13.351 0 0 0 1.595-.956v-7.294h-5.67v.812c0 .088.037.165.108.233a.387.387 0 0 0 .269.101h3.944v5.524c-.454.261-.906.495-1.355.703a10.047 10.047 0 0 1-3.038.855c-.58.073-1.223.109-1.929.109-1.266.004-2.423-.21-3.472-.635m-14.159-18.908h-1.493v20.519h1.493V104.04zm-9.077 1.827c-.697-.695-1.468-1.213-2.315-1.551-.847-.339-1.803-.508-2.868-.508-.948 0-1.793.147-2.533.442s-1.362.687-1.866 1.175a4.948 4.948 0 0 0-1.147 1.688 5.202 5.202 0 0 0-.392 1.987c0 .879.147 1.611.443 2.196a4.427 4.427 0 0 0 1.169 1.465c.483.391 1.032.713 1.647.964s1.246.479 1.896.681c.647.203 1.279.411 1.895.624a7.627 7.627 0 0 1 1.648.79 3.83 3.83 0 0 1 1.169 1.175c.295.47.442 1.066.442 1.791 0 .667-.116 1.292-.349 1.877s-.568 1.091-1.009 1.516c-.44.426-.98.762-1.619 1.008-.639.247-1.365.37-2.178.37a6.6 6.6 0 0 1-1.583-.174c-.466-.116-.876-.26-1.234-.429s-.673-.353-.944-.551a9.888 9.888 0 0 1-.696-.551 49.414 49.414 0 0 0-.493-.427c-.136-.116-.247-.174-.334-.174-.155 0-.29.071-.406.217l-.406.638a8.242 8.242 0 0 0 2.566 1.965c.976.479 2.141.718 3.495.718 1.044 0 1.972-.161 2.784-.485.812-.324 1.498-.767 2.059-1.327.56-.562.988-1.22 1.283-1.979a6.642 6.642 0 0 0 .441-2.429c0-.841-.147-1.544-.442-2.109s-.686-1.041-1.169-1.429c-.484-.387-1.033-.708-1.648-.964s-1.246-.491-1.895-.703a88.836 88.836 0 0 1-1.896-.646 7.487 7.487 0 0 1-1.647-.805 3.987 3.987 0 0 1-1.169-1.159c-.296-.455-.442-1.03-.442-1.727 0-.532.099-1.039.298-1.521.199-.484.489-.909.873-1.276a4.095 4.095 0 0 1 1.425-.87c.568-.213 1.226-.319 1.972-.319s1.375.092 1.884.275a6.364 6.364 0 0 1 2.08 1.197c.198.179.36.268.487.268.164 0 .29-.082.377-.246l.347-.668zm-29.594-1.827v20.519h12.296v-1.233H170.92v-8.555h8.99v-1.203h-8.99v-8.294h10.803v-1.233h-12.296zm-9.076 14.095c-.397 1.121-.955 2.068-1.675 2.842a7.146 7.146 0 0 1-2.604 1.769c-1.015.406-2.141.609-3.378.609h-5.989v-18.11h5.989c1.237 0 2.363.202 3.378.609a7.122 7.122 0 0 1 2.604 1.769c.72.773 1.277 1.721 1.675 2.842.396 1.122.594 2.397.594 3.827-.001 1.44-.199 2.722-.594 3.843m1.42-8.107c-.475-1.266-1.142-2.344-2.001-3.232a8.683 8.683 0 0 0-3.089-2.045c-1.199-.474-2.528-.711-3.987-.711h-7.482v20.519h7.482c1.459 0 2.788-.237 3.987-.711a8.708 8.708 0 0 0 3.089-2.044c.859-.891 1.526-1.968 2.001-3.234.473-1.266.71-2.691.71-4.278 0-1.575-.237-2.996-.71-4.264m-31.378-4.161a6.869 6.869 0 0 0-2.315-1.551c-.847-.339-1.803-.508-2.868-.508-.948 0-1.793.147-2.533.442-.741.295-1.363.687-1.866 1.175a4.92 4.92 0 0 0-1.147 1.688 5.184 5.184 0 0 0-.392 1.987c0 .879.147 1.611.442 2.196a4.44 4.44 0 0 0 1.169 1.465 6.549 6.549 0 0 0 1.648.964 23.61 23.61 0 0 0 1.895.681c.649.203 1.28.411 1.895.624s1.164.477 1.648.79c.484.314.874.706 1.169 1.175.295.47.443 1.066.443 1.791 0 .667-.116 1.292-.348 1.877a4.285 4.285 0 0 1-1.009 1.516 4.763 4.763 0 0 1-1.619 1.008c-.639.247-1.366.37-2.179.37-.59 0-1.118-.059-1.582-.174a6.653 6.653 0 0 1-1.234-.429c-.359-.169-.673-.353-.944-.551s-.504-.381-.697-.551c-.194-.169-.358-.312-.494-.427-.135-.116-.247-.174-.334-.174-.155 0-.29.071-.406.217l-.406.638a8.246 8.246 0 0 0 2.567 1.965c.976.479 2.141.718 3.494.718 1.044 0 1.972-.161 2.784-.485s1.498-.767 2.059-1.327a5.674 5.674 0 0 0 1.283-1.979 6.643 6.643 0 0 0 .443-2.429c0-.841-.148-1.544-.443-2.109a4.459 4.459 0 0 0-1.169-1.429 6.83 6.83 0 0 0-1.648-.964 25.834 25.834 0 0 0-1.895-.703 85.078 85.078 0 0 1-1.895-.646 7.495 7.495 0 0 1-1.648-.805 3.975 3.975 0 0 1-1.169-1.159c-.295-.455-.443-1.03-.443-1.727 0-.532.099-1.039.298-1.521.199-.484.49-.909.873-1.276a4.09 4.09 0 0 1 1.426-.87c.567-.213 1.224-.319 1.971-.319s1.374.092 1.883.275a6.348 6.348 0 0 1 2.081 1.197c.198.179.361.268.487.268.164 0 .29-.082.377-.246l.348-.668zm-28.84-.651h3.755c1.827 0 3.219.352 4.176 1.058s1.436 1.788 1.436 3.248c0 .715-.131 1.358-.392 1.929a4.028 4.028 0 0 1-1.138 1.464c-.498.406-1.107.719-1.827.936-.72.218-1.535.327-2.443.327h-3.567v-8.962zm2.682 10.062c.396 0 .689.043.877.13.189.087.365.237.53.45l6.568 8.323c.106.135.215.231.326.29a.864.864 0 0 0 .399.087h1.291l-7.062-8.875a2.363 2.363 0 0 0-.623-.58c.899-.096 1.706-.302 2.421-.616a6.202 6.202 0 0 0 1.834-1.203 5.019 5.019 0 0 0 1.168-1.704c.27-.647.406-1.362.406-2.146 0-1.77-.585-3.11-1.755-4.024-1.17-.913-2.939-1.37-5.307-1.37h-5.234v20.519h1.479v-9.28h2.682zm-23.91-11.238v20.519h12.296v-1.233H81.819v-8.555h8.99v-1.203h-8.99v-8.294h10.802v-1.233H80.325zm-21.663 0v1.263h7.25v19.256h1.479v-19.256h7.207v-1.263H58.662zm-4.509 1.827a6.869 6.869 0 0 0-2.315-1.551c-.847-.339-1.803-.508-2.867-.508-.949 0-1.794.147-2.534.442-.741.295-1.363.687-1.866 1.175a4.92 4.92 0 0 0-1.147 1.688 5.184 5.184 0 0 0-.392 1.987c0 .879.147 1.611.442 2.196a4.44 4.44 0 0 0 1.169 1.465 6.549 6.549 0 0 0 1.648.964 23.61 23.61 0 0 0 1.895.681 65.9 65.9 0 0 1 1.895.624 7.604 7.604 0 0 1 1.648.79c.484.314.874.706 1.169 1.175.295.47.443 1.066.443 1.791 0 .667-.116 1.292-.348 1.877a4.285 4.285 0 0 1-1.009 1.516 4.763 4.763 0 0 1-1.619 1.008c-.639.247-1.365.37-2.179.37-.59 0-1.118-.059-1.582-.174a6.653 6.653 0 0 1-1.234-.429c-.359-.169-.673-.353-.944-.551s-.504-.381-.697-.551c-.194-.169-.358-.312-.494-.427-.135-.116-.247-.174-.334-.174-.155 0-.29.071-.406.217l-.406.638a8.246 8.246 0 0 0 2.567 1.965c.976.479 2.141.718 3.494.718 1.044 0 1.972-.161 2.784-.485s1.498-.767 2.059-1.327a5.674 5.674 0 0 0 1.283-1.979 6.643 6.643 0 0 0 .443-2.429c0-.841-.148-1.544-.443-2.109a4.459 4.459 0 0 0-1.169-1.429 6.83 6.83 0 0 0-1.648-.964 25.834 25.834 0 0 0-1.895-.703 85.078 85.078 0 0 1-1.895-.646 7.495 7.495 0 0 1-1.648-.805 3.975 3.975 0 0 1-1.169-1.159c-.295-.455-.443-1.03-.443-1.727 0-.532.099-1.039.298-1.521.199-.484.49-.909.873-1.276a4.09 4.09 0 0 1 1.426-.87c.567-.213 1.224-.319 1.971-.319.747 0 1.374.092 1.883.275a6.348 6.348 0 0 1 2.081 1.197c.198.179.361.268.487.268.164 0 .29-.082.377-.246l.348-.668zm-19.096-1.827h-1.493v20.519h1.493V104.04zm-9.077 1.827a6.869 6.869 0 0 0-2.315-1.551c-.847-.339-1.803-.508-2.868-.508-.948 0-1.793.147-2.533.442-.741.295-1.363.687-1.866 1.175a4.936 4.936 0 0 0-1.148 1.688 5.202 5.202 0 0 0-.392 1.987c0 .879.148 1.611.443 2.196s.685 1.072 1.169 1.465a6.549 6.549 0 0 0 1.648.964 23.61 23.61 0 0 0 1.895.681 65.9 65.9 0 0 1 1.895.624 7.604 7.604 0 0 1 1.648.79c.484.314.874.706 1.169 1.175.295.47.443 1.066.443 1.791 0 .667-.116 1.292-.348 1.877a4.274 4.274 0 0 1-1.01 1.516c-.44.426-.98.762-1.619 1.008-.638.247-1.365.37-2.178.37-.59 0-1.118-.059-1.583-.174-.464-.116-.876-.26-1.234-.429s-.672-.353-.943-.551-.504-.381-.697-.551a62.05 62.05 0 0 0-.494-.427c-.136-.116-.247-.174-.334-.174-.155 0-.29.071-.406.217l-.406.638a8.253 8.253 0 0 0 2.566 1.965c.977.479 2.142.718 3.495.718 1.044 0 1.972-.161 2.784-.485s1.498-.767 2.059-1.327a5.674 5.674 0 0 0 1.283-1.979 6.643 6.643 0 0 0 .442-2.429c0-.841-.147-1.544-.442-2.109a4.472 4.472 0 0 0-1.169-1.429 6.818 6.818 0 0 0-1.649-.964 25.64 25.64 0 0 0-1.894-.703 83.364 83.364 0 0 1-1.895-.646 7.495 7.495 0 0 1-1.648-.805 3.975 3.975 0 0 1-1.169-1.159c-.296-.455-.443-1.03-.443-1.727 0-.532.099-1.039.298-1.521.199-.484.49-.909.873-1.276a4.09 4.09 0 0 1 1.426-.87c.567-.213 1.224-.319 1.971-.319.746 0 1.374.092 1.883.275a6.282 6.282 0 0 1 2.081 1.197c.198.179.361.268.487.268.164 0 .29-.082.377-.246l.348-.668z"/></svg>